<svg xmlns="http://www.w3.org/2000/svg" width="101" height="101" data-name="layer_0"><rect id="backgroundrect" width="100" height="100" fill="none"/><g class="currentLayer"><path id="svg_1" d="m86.7 47.4a1.2 1.3 0 0 0-2.5-0.6c-1.7 7.5-5 11.2-6.4 12.4 -5-4.8-8.3-3.4-12.1-0.4 4.9-14.1-5.2-24.8-5.3-24.9a1.2 1.3 0 0 0-2.1 0.9 8.1 8.5 0 0 1-8.1 8.5 8.3 8.7 0 0 1-5.9-2.6 7.6 7.9 0 0 1-2.2-5.8 21.3 22.3 0 0 1 10.3-18.4 1.2 1.3 0 0 0-0.8-2.4 45.6 47.9 0 0 0-21 9.5 32.5 34.1 0 0 0-12.4 27.5c0 12.9 7.8 20 12.5 23.1 -2.5 0.4-4.7 0.7-6.6 0.9 -6.5 0.8-9.8 1.2-9.7 3.8a3.9 4.1 0 0 0 1.5 2.9c3.9 3.6 16.1 5.1 26.2 5.1 2.5 0 4.9-0.1 7-0.3 7.5-0.6 28.8-6.8 32.3-16.7 0.7-2.1 0.9-5.3-1.9-8.8 1.9-1.6 5.4-5.7 7.2-13.7zm-66 3.7c0-10.2 5.7-27.9 26.2-33.3a23.4 24.5 0 0 0-7.2 17.2 10 10.5 0 0 0 2.9 7.7 10.8 11.3 0 0 0 7.7 3.4 10.6 11.1 0 0 0 10.1-8c2.8 4 7.5 13.3 0.9 24.5a43.3 45.4 0 0 1-11.9 7 88.6 92.9 0 0 1-14.7 4c-2.5-1.2-14-7.6-14-22.4zm58.4 18c-2.8 7.8-21.4 14.3-30.2 15 -11.4 1-27.6-0.7-31.4-4.2a1.9 2 0 0 1-0.6-0.9c0.9-0.5 4.4-1 7.5-1.4 6.4-0.8 15.9-1.9 25.9-5.7a46.4 48.7 0 0 0 12.7-7.5l0 0c0.8-0.6 1.5-1.2 2.1-1.7 5.1-4.2 7-5.8 11.8-0.8l0 0c2.4 2.4 3 4.7 2.2 7.1l0 0z" style="fill:#fff;stroke:null"/><path id="svg_2" d="m48.2 50.2c-6.6-0.7-11.1-4.1-13.2-10.3a26.2 26.2 0 0 1-1.3-9.6 1.5 1.5 0 0 0-2.6-1.2c-0.2 0.3-6 6.2-6 19.7 0 9.6 5.3 14.7 10.5 18.4a1.5 1.5 0 1 0 1.8-2.4c-4.8-3.5-9.3-7.8-9.3-16a32 32 0 0 1 2.8-13.8c0.8 6.4 4 16.9 17 18.1a1.5 1.5 0 1 0 0.3-3l0 0z" fill="#fff"/></g></svg>